<?xml version="1.0" standalone="no"?>
<!DOCTYPE svg PUBLIC "-//W3C//DTD SVG 20010904//EN"
 "http://www.w3.org/TR/2001/REC-SVG-20010904/DTD/svg10.dtd">
<svg version="1.0" xmlns="http://www.w3.org/2000/svg"
 width="512.000000pt" height="512.000000pt" viewBox="0 0 512.000000 512.000000"
 preserveAspectRatio="xMidYMid meet">

<g transform="translate(0.000000,512.000000) scale(0.100000,-0.100000)"
fill="#000000" stroke="none">
<path d="M1957 5104 c-500 -77 -921 -436 -1070 -910 -62 -197 -62 -194 -62
-854 l0 -605 23 -67 c56 -161 173 -281 330 -338 l62 -23 -74 -32 c-418 -181
-699 -523 -798 -970 -17 -76 -21 -139 -25 -397 l-5 -308 -52 0 c-112 0 -212
-55 -259 -144 -19 -35 -22 -56 -22 -156 0 -99 3 -121 22 -155 25 -47 74 -95
123 -121 34 -18 113 -19 2410 -19 2297 0 2376 1 2410 19 49 26 98 74 123 121
25 48 35 197 18 261 -15 56 -64 120 -115 152 l-44 27 -4 85 c-6 120 -42 181
-138 239 -29 17 -36 29 -46 78 -54 259 -260 472 -512 529 l-72 16 0 59 c0 75
-28 113 -85 113 -57 0 -85 -38 -85 -113 l0 -58 -62 -16 c-35 -9 -73 -19 -84
-22 -17 -5 -23 -1 -28 22 -4 15 -25 66 -47 112 -134 286 -379 521 -671 641
l-88 36 54 17 c143 46 274 174 337 332 l24 60 3 591 c3 656 0 707 -59 890 -39
123 -92 235 -160 339 -65 98 -258 293 -354 357 -279 184 -609 260 -918 212z
m343 -168 c171 -26 343 -93 484 -189 79 -53 205 -175 267 -256 62 -82 140
-234 173 -333 54 -165 57 -223 54 -843 l-3 -570 -29 -62 c-34 -73 -113 -153
-183 -186 -43 -20 -68 -22 -235 -25 l-187 -4 -31 44 c-60 82 -62 74 42 179
111 112 145 171 212 375 l46 141 57 17 c78 25 172 117 202 199 28 77 28 168
-1 244 -31 85 -123 175 -205 200 -54 16 -65 25 -110 83 -107 140 -219 200
-372 200 -314 0 -606 104 -706 251 -39 58 -54 68 -93 69 -48 0 -77 -34 -86
-99 -13 -99 -68 -171 -161 -212 -91 -39 -95 -47 -95 -170 l0 -108 -60 -27
c-70 -31 -141 -101 -172 -171 -17 -37 -22 -68 -22 -138 -1 -79 3 -97 27 -145
39 -75 91 -127 162 -161 33 -16 65 -29 72 -29 6 0 26 -44 44 -97 81 -246 134
-340 251 -447 l71 -65 -26 -43 c-53 -91 -51 -90 -254 -86 l-178 3 -63 34 c-78
42 -144 114 -174 189 l-23 57 0 580 c0 626 1 640 55 809 95 294 308 543 584
680 125 62 236 95 396 120 59 8 182 5 270 -8z m-522 -771 c152 -109 432 -185
685 -185 125 -1 195 -41 273 -157 59 -89 74 -103 108 -103 65 -1 143 -54 165
-113 23 -59 9 -130 -32 -176 -27 -29 -93 -60 -128 -61 -56 0 -74 -29 -139
-225 -68 -204 -103 -269 -191 -350 -67 -64 -126 -104 -220 -152 -68 -35 -81
-38 -159 -38 -75 0 -93 4 -152 32 -162 76 -296 196 -353 314 -19 40 -57 141
-86 226 -54 164 -73 193 -123 193 -43 1 -108 32 -134 65 -70 89 -43 211 58
263 24 12 58 22 75 22 67 1 85 39 85 177 l0 108 45 24 c44 23 165 142 165 161
0 15 6 13 58 -25z m132 -1680 c122 -62 251 -72 377 -30 43 15 88 33 100 40 20
14 23 12 47 -29 13 -23 44 -65 68 -92 l44 -49 -204 -563 c-113 -310 -208 -560
-212 -555 -4 4 -98 258 -208 564 l-202 556 45 48 c24 27 54 68 67 92 13 24 24
43 26 43 1 0 25 -11 52 -25z m1187 -394 c106 -51 174 -95 261 -170 129 -111
253 -287 307 -436 l28 -75 -71 -70 c-106 -105 -181 -246 -199 -375 -4 -35 -10
-45 -30 -50 -14 -3 -47 -28 -73 -54 -55 -55 -80 -120 -80 -208 l0 -53 -1366 0
-1366 0 5 298 c6 373 21 452 127 667 108 217 292 404 505 512 82 42 243 105
256 101 5 -2 -32 -72 -82 -155 -81 -136 -91 -158 -91 -201 0 -77 25 -114 125
-181 l47 -32 -30 -38 c-53 -65 -53 -155 0 -214 15 -18 187 -138 380 -267 275
-183 358 -234 383 -234 25 0 111 53 397 245 334 223 367 248 388 289 30 59 24
118 -19 179 -24 34 -28 46 -17 52 7 4 37 25 67 46 70 49 93 92 88 160 -3 44
-17 74 -92 200 -48 81 -90 151 -92 155 -6 12 152 -48 244 -91z m-1313 -440
c97 -266 175 -485 173 -487 -2 -2 -105 65 -230 148 l-227 151 60 63 c92 96 86
123 -53 215 -51 34 -96 65 -101 70 -5 5 33 79 90 173 54 91 102 162 105 158 4
-4 87 -225 183 -491z m989 333 c55 -91 97 -167 95 -168 -1 -2 -46 -32 -98 -66
-111 -74 -119 -83 -120 -130 0 -30 9 -44 55 -90 30 -30 55 -58 55 -62 0 -4
-101 -75 -225 -158 -124 -83 -225 -147 -225 -143 0 15 354 983 359 983 3 0 50
-75 104 -166z m1505 -653 c162 -64 275 -194 316 -363 l6 -28 -504 0 -504 0 10
42 c33 148 165 294 318 352 100 37 259 36 358 -3z m478 -594 c19 -22 24 -39
24 -83 l0 -54 -685 0 -685 0 0 48 c0 56 17 92 50 109 20 10 161 12 648 10
l624 -2 24 -28z m170 -340 c20 -24 24 -39 24 -98 0 -65 -2 -73 -29 -100 l-29
-29 -2332 0 -2332 0 -29 29 c-26 27 -29 36 -29 98 0 74 15 107 54 123 12 5
1051 8 2349 7 l2329 -2 24 -28z"/>
<path d="M815 1098 c-51 -29 -61 -93 -20 -133 24 -25 25 -25 227 -25 212 1
223 3 246 47 19 35 14 63 -17 94 l-29 29 -194 0 c-126 -1 -200 -5 -213 -12z"/>
</g>
</svg>
