<svg width="74" height="99" viewBox="0 0 74 99" fill="none" xmlns="http://www.w3.org/2000/svg">
<rect width="74" height="74" rx="37" fill="#67CE67"/>
<path d="M29.1172 45.0781C34.0039 49.9648 40.1035 53.8145 45.1309 53.8145C47.4336 53.8145 49.4023 53.0234 51.0195 51.2832C51.916 50.334 52.584 49.1035 52.584 47.9258C52.584 47.082 52.2676 46.2734 51.4062 45.6758L46.0449 41.8965C45.3066 41.3867 44.6562 41.1055 44.041 41.1055C43.25 41.1055 42.5117 41.5273 41.7031 42.3184L40.4199 43.5664C40.2266 43.7598 39.998 43.8301 39.752 43.8301C39.5059 43.8301 39.2773 43.7422 39.084 43.6543C38.0469 43.1094 36.1484 41.6152 34.373 39.8223C32.5801 38.0293 31.0508 36.166 30.541 35.0938C30.4531 34.9004 30.3652 34.6719 30.3652 34.4609C30.3652 34.2324 30.4355 34.0215 30.6289 33.8281L31.877 32.5098C32.6504 31.666 33.0723 30.9277 33.0723 30.1543C33.0723 29.5215 32.8086 28.8711 32.2812 28.1328L28.5898 22.9121C27.9746 22.0508 27.1133 21.6641 26.1641 21.6641C25.0566 21.6641 23.8613 22.209 22.8418 23.2109C21.1543 24.8457 20.416 26.8672 20.416 29.0996C20.416 34.127 24.2129 40.1738 29.1172 45.0781Z" fill="white"/>
<path d="M24.0285 96H25.1359L22.0187 87.5449H20.9758L17.8586 96H18.966L19.8156 93.5801H23.1789L24.0285 96ZM21.4504 88.9102H21.5441L22.8684 92.6836H20.1262L21.4504 88.9102ZM31.2445 91.6172C31.0687 90.4922 30.1312 89.5723 28.596 89.5723C26.8265 89.5723 25.7015 90.8496 25.7015 92.8184C25.7015 94.8281 26.8323 96.1113 28.6019 96.1113C30.1195 96.1113 31.0628 95.2559 31.2445 94.0957H30.2249C30.0374 94.8105 29.4456 95.2031 28.596 95.2031C27.471 95.2031 26.7445 94.2773 26.7445 92.8184C26.7445 91.3887 27.4593 90.4805 28.596 90.4805C29.5042 90.4805 30.0609 90.9902 30.2249 91.6172H31.2445ZM37.8393 91.6172C37.6635 90.4922 36.726 89.5723 35.1909 89.5723C33.4213 89.5723 32.2963 90.8496 32.2963 92.8184C32.2963 94.8281 33.4272 96.1113 35.1967 96.1113C36.7143 96.1113 37.6577 95.2559 37.8393 94.0957H36.8198C36.6323 94.8105 36.0405 95.2031 35.1909 95.2031C34.0659 95.2031 33.3393 94.2773 33.3393 92.8184C33.3393 91.3887 34.0541 90.4805 35.1909 90.4805C36.0991 90.4805 36.6557 90.9902 36.8198 91.6172H37.8393ZM43.3912 94.3652C43.1275 94.9219 42.5767 95.2207 41.7623 95.2207C40.69 95.2207 39.9927 94.4297 39.94 93.1816V93.1348H44.481V92.748C44.481 90.7852 43.4439 89.5723 41.7388 89.5723C40.0045 89.5723 38.8912 90.8613 38.8912 92.8477C38.8912 94.8457 39.9869 96.1113 41.7388 96.1113C43.1216 96.1113 44.106 95.4434 44.399 94.3652H43.3912ZM41.7271 90.4629C42.7291 90.4629 43.397 91.2012 43.4205 92.3203H39.94C40.0162 91.2012 40.7193 90.4629 41.7271 90.4629ZM49.0192 89.5723C48.1579 89.5723 47.402 90.0117 46.9977 90.7383H46.904V89.6836H45.943V98.1094H46.9509V95.0508H47.0446C47.3903 95.7188 48.1169 96.1113 49.0192 96.1113C50.6247 96.1113 51.6735 94.8164 51.6735 92.8418C51.6735 90.8555 50.6305 89.5723 49.0192 89.5723ZM48.779 95.2031C47.6423 95.2031 46.9216 94.2891 46.9216 92.8418C46.9216 91.3887 47.6423 90.4805 48.7848 90.4805C49.9391 90.4805 50.6305 91.3652 50.6305 92.8418C50.6305 94.3184 49.9391 95.2031 48.779 95.2031ZM53.5574 88.0488V89.6836H52.5379V90.5273H53.5574V94.3594C53.5574 95.5664 54.0789 96.0469 55.3797 96.0469C55.5789 96.0469 55.7723 96.0234 55.9715 95.9883V95.1387C55.784 95.1562 55.6844 95.1621 55.5027 95.1621C54.8465 95.1621 54.5652 94.8457 54.5652 94.1016V90.5273H55.9715V89.6836H54.5652V88.0488H53.5574Z" fill="white"/>
</svg>
