<svg width="74" height="97" viewBox="0 0 74 97" fill="none" xmlns="http://www.w3.org/2000/svg">
<rect width="74" height="74" rx="37" fill="#EB5545"/>
<path d="M36.5 29.8555C29.1348 29.873 22.1035 31.4551 18.5352 35.0234C16.918 36.6406 16.0918 38.5918 16.1621 40.9473C16.2148 42.2656 16.584 43.6016 17.4277 44.4453C18.0078 45.043 18.834 45.377 19.8535 45.2012L26.3398 44.0938C27.2012 43.9355 27.8516 43.6543 28.3086 43.2148C28.8711 42.6875 29.082 41.8438 29.082 40.7012L29.1172 38.9258C29.1172 38.6445 29.2227 38.4336 29.3984 38.2578C29.5566 38.0645 29.8027 37.9766 29.9961 37.9238C31.1211 37.625 33.5293 37.3086 36.5 37.3086C39.4707 37.3086 41.8613 37.5547 43.0039 37.9414C43.1973 37.9941 43.4082 38.0996 43.5664 38.2578C43.7422 38.416 43.8301 38.6094 43.8301 38.873L43.8828 40.7012C43.918 41.8438 44.1465 42.6699 44.6914 43.2148C45.1484 43.6719 45.7988 43.9355 46.6777 44.0938L52.9707 45.166C54.043 45.3594 54.9219 44.9902 55.5898 44.3398C56.3633 43.5488 56.8203 42.3184 56.8379 40.877C56.873 38.5215 55.9766 36.5879 54.3945 35.0234C50.8262 31.4551 43.8652 29.8379 36.5 29.8555Z" fill="white"/>
<path d="M16.3737 87.5449V96H19.2741C21.7877 96 23.2643 94.4355 23.2643 91.7695C23.2643 89.1094 21.7819 87.5449 19.2741 87.5449H16.3737ZM17.4284 88.4941H19.2038C21.0788 88.4941 22.1862 89.7129 22.1862 91.7812C22.1862 93.8438 21.0905 95.0508 19.2038 95.0508H17.4284V88.4941ZM29.0271 94.3652C28.7634 94.9219 28.2127 95.2207 27.3982 95.2207C26.3259 95.2207 25.6287 94.4297 25.5759 93.1816V93.1348H30.117V92.748C30.117 90.7852 29.0798 89.5723 27.3748 89.5723C25.6404 89.5723 24.5271 90.8613 24.5271 92.8477C24.5271 94.8457 25.6228 96.1113 27.3748 96.1113C28.7576 96.1113 29.742 95.4434 30.0349 94.3652H29.0271ZM27.363 90.4629C28.365 90.4629 29.033 91.2012 29.0564 92.3203H25.5759C25.6521 91.2012 26.3552 90.4629 27.363 90.4629ZM36.8055 91.6172C36.6298 90.4922 35.6923 89.5723 34.1571 89.5723C32.3876 89.5723 31.2626 90.8496 31.2626 92.8184C31.2626 94.8281 32.3934 96.1113 34.163 96.1113C35.6805 96.1113 36.6239 95.2559 36.8055 94.0957H35.786C35.5985 94.8105 35.0067 95.2031 34.1571 95.2031C33.0321 95.2031 32.3055 94.2773 32.3055 92.8184C32.3055 91.3887 33.0204 90.4805 34.1571 90.4805C35.0653 90.4805 35.622 90.9902 35.786 91.6172H36.8055ZM38.2324 96H39.2402V87.1758H38.2324V96ZM41.6046 88.4648C41.9913 88.4648 42.3077 88.1484 42.3077 87.7617C42.3077 87.375 41.9913 87.0586 41.6046 87.0586C41.2179 87.0586 40.9015 87.375 40.9015 87.7617C40.9015 88.1484 41.2179 88.4648 41.6046 88.4648ZM41.1007 96H42.1085V89.6836H41.1007V96ZM43.9104 96H44.9182V92.2617C44.9182 91.1543 45.5686 90.4805 46.5764 90.4805C47.5842 90.4805 48.0647 91.0195 48.0647 92.1562V96H49.0725V91.9102C49.0725 90.4102 48.2815 89.5723 46.8635 89.5723C45.8967 89.5723 45.2815 89.9824 44.9651 90.6797H44.8713V89.6836H43.9104V96ZM54.9818 94.3652C54.7181 94.9219 54.1673 95.2207 53.3529 95.2207C52.2806 95.2207 51.5834 94.4297 51.5306 93.1816V93.1348H56.0716V92.748C56.0716 90.7852 55.0345 89.5723 53.3295 89.5723C51.5951 89.5723 50.4818 90.8613 50.4818 92.8477C50.4818 94.8457 51.5775 96.1113 53.3295 96.1113C54.7123 96.1113 55.6966 95.4434 55.9896 94.3652H54.9818ZM53.3177 90.4629C54.3197 90.4629 54.9877 91.2012 55.0111 92.3203H51.5306C51.6068 91.2012 52.3099 90.4629 53.3177 90.4629Z" fill="white"/>
</svg>
