<svg width="114" height="41" viewBox="0 0 114 41" fill="none" xmlns="http://www.w3.org/2000/svg">
<path d="M53.0234 17.9922C53.3359 17.9922 53.5547 17.8359 53.9219 17.4922L56.75 14.9141L62.0234 14.9219C64.3516 14.9297 65.6016 13.6328 65.6016 11.3438V5.35938C65.6016 3.07031 64.3516 1.78125 62.0234 1.78125H51.9609C49.6406 1.78125 48.3828 3.0625 48.3828 5.35938V11.3438C48.3828 13.6406 49.6406 14.9219 51.9609 14.9141H52.3281V17.1875C52.3281 17.6719 52.5859 17.9922 53.0234 17.9922Z" fill="white"/>
<path d="M41.4811 38V29.5449H40.2565L37.362 36.5996H37.2682L34.3737 29.5449H33.1491V38H34.1334V31.543H34.2038L36.8698 38H37.7604L40.4264 31.543H40.4967V38H41.4811ZM47.572 36.3652C47.3084 36.9219 46.7576 37.2207 45.9431 37.2207C44.8709 37.2207 44.1736 36.4297 44.1209 35.1816V35.1348H48.6619V34.748C48.6619 32.7852 47.6248 31.5723 45.9197 31.5723C44.1853 31.5723 43.072 32.8613 43.072 34.8477C43.072 36.8457 44.1677 38.1113 45.9197 38.1113C47.3025 38.1113 48.2869 37.4434 48.5798 36.3652H47.572ZM45.908 32.4629C46.9099 32.4629 47.5779 33.2012 47.6013 34.3203H44.1209C44.197 33.2012 44.9002 32.4629 45.908 32.4629ZM49.9774 33.4121C49.9774 34.3262 50.5165 34.8359 51.7001 35.123L52.7841 35.3867C53.4579 35.5508 53.786 35.8438 53.786 36.2773C53.786 36.8574 53.1766 37.2617 52.327 37.2617C51.5184 37.2617 51.0145 36.9219 50.8446 36.3887H49.8075C49.9188 37.4375 50.8856 38.1113 52.2919 38.1113C53.7274 38.1113 54.8231 37.332 54.8231 36.2012C54.8231 35.293 54.2489 34.7773 53.0595 34.4902L52.0868 34.2559C51.3427 34.0742 50.9911 33.8047 50.9911 33.3711C50.9911 32.8086 51.577 32.4277 52.327 32.4277C53.0888 32.4277 53.5809 32.7617 53.7157 33.2656H54.7118C54.577 32.2285 53.6571 31.5723 52.3329 31.5723C50.9911 31.5723 49.9774 32.3633 49.9774 33.4121ZM56.0215 33.4121C56.0215 34.3262 56.5605 34.8359 57.7441 35.123L58.8281 35.3867C59.502 35.5508 59.8301 35.8438 59.8301 36.2773C59.8301 36.8574 59.2207 37.2617 58.3711 37.2617C57.5625 37.2617 57.0586 36.9219 56.8887 36.3887H55.8516C55.9629 37.4375 56.9297 38.1113 58.3359 38.1113C59.7715 38.1113 60.8672 37.332 60.8672 36.2012C60.8672 35.293 60.293 34.7773 59.1035 34.4902L58.1309 34.2559C57.3867 34.0742 57.0352 33.8047 57.0352 33.3711C57.0352 32.8086 57.6211 32.4277 58.3711 32.4277C59.1328 32.4277 59.625 32.7617 59.7598 33.2656H60.7559C60.6211 32.2285 59.7012 31.5723 58.377 31.5723C57.0352 31.5723 56.0215 32.3633 56.0215 33.4121ZM64.087 38.1113C64.9308 38.1113 65.6222 37.7422 66.0323 37.0684H66.1261V38H67.087V33.6758C67.087 32.3633 66.2257 31.5723 64.6847 31.5723C63.337 31.5723 62.3409 32.2402 62.2062 33.2539H63.2257C63.3663 32.7559 63.8937 32.4688 64.6495 32.4688C65.5929 32.4688 66.0792 32.8965 66.0792 33.6758V34.25L64.257 34.3613C62.7863 34.4492 61.9542 35.0996 61.9542 36.2305C61.9542 37.3848 62.8624 38.1113 64.087 38.1113ZM64.2745 37.2266C63.5421 37.2266 62.9972 36.8516 62.9972 36.207C62.9972 35.5742 63.4191 35.2402 64.38 35.1758L66.0792 35.0645V35.6445C66.0792 36.5469 65.3116 37.2266 64.2745 37.2266ZM71.4319 40.4258C73.1545 40.4258 74.2444 39.5234 74.2444 38.1113V31.6836H73.2834V32.6855H73.1897C72.8264 32.0059 72.0471 31.5723 71.1623 31.5723C69.5393 31.5723 68.5139 32.8555 68.5139 34.748C68.5139 36.6406 69.5276 37.9062 71.1623 37.9062C72.0295 37.9062 72.7444 37.5137 73.1428 36.8164H73.2366V38.0586C73.2366 38.9902 72.5627 39.5469 71.4319 39.5469C70.5237 39.5469 69.9612 39.2129 69.8498 38.6973H68.7834C68.9358 39.7402 69.9084 40.4258 71.4319 40.4258ZM71.385 37.0156C70.2131 37.0156 69.5569 36.125 69.5569 34.748C69.5569 33.3711 70.2131 32.4805 71.385 32.4805C72.551 32.4805 73.26 33.3711 73.26 34.748C73.26 36.125 72.5569 37.0156 71.385 37.0156ZM80.2064 36.3652C79.9427 36.9219 79.392 37.2207 78.5775 37.2207C77.5052 37.2207 76.808 36.4297 76.7552 35.1816V35.1348H81.2962V34.748C81.2962 32.7852 80.2591 31.5723 78.5541 31.5723C76.8197 31.5723 75.7064 32.8613 75.7064 34.8477C75.7064 36.8457 76.8021 38.1113 78.5541 38.1113C79.9369 38.1113 80.9212 37.4434 81.2142 36.3652H80.2064ZM78.5423 32.4629C79.5443 32.4629 80.2123 33.2012 80.2357 34.3203H76.7552C76.8314 33.2012 77.5345 32.4629 78.5423 32.4629Z" fill="white"/>
</svg>
