<svg width="114" height="41" viewBox="0 0 114 41" fill="none" xmlns="http://www.w3.org/2000/svg">
<path d="M50.3984 3.57031L53.1641 1.49219C53.3047 1.38281 53.3828 1.25781 53.3828 1.125C53.3828 0.9375 53.3047 0.78125 53.1172 0.640625C52.7891 0.382812 52.2891 0.242188 51.7812 0.242188C50.4922 0.242188 49.4609 1.25781 49.4609 2.53125C49.4609 2.85938 49.5234 3.17969 49.6016 3.35938C49.7031 3.55469 49.8672 3.6875 50.0703 3.6875C50.1953 3.6875 50.2812 3.67188 50.3984 3.57031ZM63.3359 3.57031C63.4531 3.67188 63.5391 3.6875 63.6641 3.6875C63.8672 3.6875 64.0312 3.55469 64.125 3.35938C64.2031 3.17969 64.2734 2.85938 64.2734 2.53125C64.2734 1.25781 63.2422 0.242188 61.9453 0.242188C61.4375 0.242188 60.9453 0.382812 60.6094 0.640625C60.4297 0.78125 60.3516 0.9375 60.3516 1.125C60.3516 1.25781 60.4297 1.38281 60.5625 1.49219L63.3359 3.57031ZM50.2109 17.0938C50.4531 17.3438 50.875 17.3438 51.1172 17.1016L52.3828 15.8359C53.6875 16.7734 55.2891 17.3281 57 17.3281C58.6797 17.3281 60.25 16.7969 61.5469 15.8828L62.7578 17.1016C63 17.3359 63.4141 17.3359 63.6641 17.1016C63.9062 16.8516 63.9062 16.4297 63.6641 16.1953L62.5312 15.0625C64.0312 13.6094 64.9688 11.5781 64.9688 9.35938C64.9688 5.00781 61.3438 1.39062 56.9922 1.39062C52.6328 1.39062 49.0312 5.00781 49.0312 9.35938C49.0312 11.5547 49.9453 13.5547 51.4062 15.0078L50.2188 16.1953C49.9766 16.4297 49.9688 16.8516 50.2109 17.0938ZM52.9062 10.2031C52.6016 10.2031 52.3672 9.96875 52.3672 9.65625C52.3672 9.35156 52.6016 9.11719 52.9062 9.11719H56.4531V4.39062C56.4531 4.08594 56.6875 3.85156 56.9922 3.85156C57.2969 3.85156 57.5391 4.08594 57.5391 4.39062V9.65625C57.5391 9.96875 57.2969 10.2031 56.9922 10.2031H52.9062Z" fill="white"/>
<path d="M28.1011 34.6543H30.1812L31.9917 38H33.228L31.271 34.4902C32.3316 34.1562 32.9702 33.2422 32.9702 32.0645C32.9702 30.541 31.9038 29.5449 30.2749 29.5449H27.0464V38H28.1011V34.6543ZM28.1011 30.4824H30.1343C31.2241 30.4824 31.8804 31.0859 31.8804 32.0996C31.8804 33.1367 31.2652 33.7168 30.1812 33.7168H28.1011V30.4824ZM38.6452 36.3652C38.3815 36.9219 37.8307 37.2207 37.0163 37.2207C35.944 37.2207 35.2467 36.4297 35.194 35.1816V35.1348H39.735V34.748C39.735 32.7852 38.6979 31.5723 36.9928 31.5723C35.2584 31.5723 34.1452 32.8613 34.1452 34.8477C34.1452 36.8457 35.2409 38.1113 36.9928 38.1113C38.3756 38.1113 39.36 37.4434 39.653 36.3652H38.6452ZM36.9811 32.4629C37.983 32.4629 38.651 33.2012 38.6745 34.3203H35.194C35.2702 33.2012 35.9733 32.4629 36.9811 32.4629ZM41.197 38H42.2048V34.0859C42.2048 33.1953 42.8435 32.4805 43.6697 32.4805C44.4666 32.4805 44.988 32.9609 44.988 33.7109V38H45.9959V33.9395C45.9959 33.1367 46.5818 32.4805 47.4607 32.4805C48.3513 32.4805 48.7908 32.9375 48.7908 33.8691V38H49.7986V33.6348C49.7986 32.3105 49.0779 31.5723 47.7888 31.5723C46.9158 31.5723 46.1951 32.0117 45.8552 32.6797H45.7615C45.4685 32.0234 44.8709 31.5723 44.0154 31.5723C43.1716 31.5723 42.5388 31.9766 42.2517 32.6797H42.158V31.6836H41.197V38ZM52.0458 30.4648C52.4325 30.4648 52.7489 30.1484 52.7489 29.7617C52.7489 29.375 52.4325 29.0586 52.0458 29.0586C51.6591 29.0586 51.3427 29.375 51.3427 29.7617C51.3427 30.1484 51.6591 30.4648 52.0458 30.4648ZM51.5419 38H52.5497V31.6836H51.5419V38ZM54.3516 38H55.3594V34.2617C55.3594 33.1543 56.0098 32.4805 57.0176 32.4805C58.0254 32.4805 58.5059 33.0195 58.5059 34.1562V38H59.5137V33.9102C59.5137 32.4102 58.7227 31.5723 57.3047 31.5723C56.3379 31.5723 55.7227 31.9824 55.4062 32.6797H55.3125V31.6836H54.3516V38ZM63.5773 38.1113C64.4503 38.1113 65.2003 37.6953 65.5988 36.9922H65.6925V38H66.6534V29.1758H65.6456V32.6797H65.5577C65.2003 31.9883 64.4562 31.5723 63.5773 31.5723C61.9718 31.5723 60.923 32.8613 60.923 34.8418C60.923 36.8281 61.9601 38.1113 63.5773 38.1113ZM63.8116 32.4805C64.9542 32.4805 65.6691 33.3945 65.6691 34.8418C65.6691 36.3008 64.9601 37.2031 63.8116 37.2031C62.6573 37.2031 61.9659 36.3184 61.9659 34.8418C61.9659 33.3711 62.6632 32.4805 63.8116 32.4805ZM80.2181 38V29.5449H78.9935L76.099 36.5996H76.0052L73.1107 29.5449H71.8861V38H72.8705V31.543H72.9408L75.6068 38H76.4974L79.1634 31.543H79.2337V38H80.2181ZM86.3091 36.3652C86.0454 36.9219 85.4946 37.2207 84.6802 37.2207C83.6079 37.2207 82.9106 36.4297 82.8579 35.1816V35.1348H87.3989V34.748C87.3989 32.7852 86.3618 31.5723 84.6567 31.5723C82.9223 31.5723 81.8091 32.8613 81.8091 34.8477C81.8091 36.8457 82.9048 38.1113 84.6567 38.1113C86.0395 38.1113 87.0239 37.4434 87.3169 36.3652H86.3091ZM84.645 32.4629C85.647 32.4629 86.3149 33.2012 86.3384 34.3203H82.8579C82.9341 33.2012 83.6372 32.4629 84.645 32.4629Z" fill="white"/>
</svg>
